<?xml version="1.0" standalone="no"?>
<!DOCTYPE svg PUBLIC "-//W3C//DTD SVG 20010904//EN"
 "http://www.w3.org/TR/2001/REC-SVG-20010904/DTD/svg10.dtd">
<svg version="1.0" xmlns="http://www.w3.org/2000/svg"
 width="450.000000pt" height="387.000000pt" viewBox="0 0 450.000000 387.000000"
 preserveAspectRatio="xMidYMid meet">
<g transform="translate(0.000000,387.000000) scale(0.100000,-0.100000)"
fill="#000000" stroke="none">
<path d="M1087 3812 c-15 -31 -36 -70 -47 -87 -11 -16 -24 -39 -30 -50 -6 -11
-19 -33 -30 -50 -11 -16 -23 -37 -27 -45 -4 -8 -25 -46 -48 -85 -22 -38 -44
-77 -48 -85 -4 -8 -16 -28 -27 -45 -11 -16 -24 -39 -30 -50 -6 -11 -19 -33
-29 -50 -11 -16 -32 -52 -47 -80 -49 -89 -55 -100 -74 -130 -11 -16 -23 -37
-27 -45 -4 -8 -33 -58 -65 -111 -32 -53 -58 -99 -58 -102 0 -4 -12 -23 -26
-44 -14 -21 -30 -47 -35 -58 -5 -11 -13 -27 -19 -35 -15 -23 -155 -263 -163
-280 -4 -8 -16 -28 -27 -45 -11 -16 -23 -37 -27 -45 -4 -8 -32 -58 -63 -110
-31 -52 -59 -102 -63 -110 -4 -8 -16 -28 -27 -45 -55 -87 -59 -104 -29 -150
10 -16 23 -39 29 -50 6 -11 19 -33 30 -50 11 -16 23 -37 27 -45 8 -18 89 -158
103 -180 6 -8 15 -24 20 -35 6 -11 19 -33 30 -50 11 -16 23 -37 27 -45 8 -17
118 -207 133 -230 6 -8 13 -22 17 -30 4 -8 32 -58 63 -110 31 -52 59 -102 63
-110 4 -8 16 -28 27 -45 11 -16 24 -39 30 -50 6 -11 19 -33 30 -50 11 -16 26
-43 34 -60 8 -16 29 -52 45 -80 17 -27 35 -59 41 -70 6 -11 19 -33 30 -50 11
-16 23 -37 27 -45 8 -18 118 -208 133 -230 6 -8 15 -24 20 -35 6 -11 19 -33
30 -50 10 -16 30 -50 42 -75 13 -25 32 -57 42 -72 l18 -28 1128 0 1129 0 33
58 c18 31 38 66 45 77 7 11 17 29 23 40 6 11 19 34 30 50 11 17 23 37 27 45 4
8 32 58 63 110 31 52 59 102 63 110 4 8 16 29 27 45 11 17 24 39 30 50 6 11
16 29 23 40 7 11 37 63 67 115 30 52 60 104 67 115 7 11 17 29 23 40 6 11 19
34 30 50 11 17 23 37 27 45 8 18 89 158 103 180 6 8 15 24 20 35 6 11 19 34
30 50 11 17 23 37 27 45 4 8 24 44 46 79 21 35 43 74 48 85 5 12 18 35 29 51
11 17 23 37 27 45 3 8 18 33 32 55 37 58 81 137 88 158 3 9 9 17 13 17 5 0 13
12 19 28 23 53 42 82 57 82 21 0 18 47 -3 52 -10 3 -29 26 -43 52 -14 26 -29
55 -35 64 -5 10 -35 60 -65 112 -30 52 -60 104 -67 115 -7 11 -17 29 -23 40
-6 11 -19 34 -30 50 -11 17 -23 37 -27 45 -4 8 -25 47 -48 85 -22 39 -44 77
-48 85 -4 8 -16 29 -27 45 -11 17 -24 39 -30 50 -6 11 -19 34 -29 50 -11 17
-32 53 -47 80 -49 89 -55 100 -74 130 -11 17 -24 39 -30 50 -6 11 -19 34 -30
50 -11 17 -24 39 -29 51 -5 11 -27 50 -48 85 -22 35 -42 71 -46 79 -4 8 -16
29 -27 45 -11 17 -23 37 -27 45 -8 18 -119 208 -133 230 -6 8 -13 22 -17 30
-4 8 -18 33 -32 55 -40 64 -71 117 -89 157 l-17 38 -1125 0 -1125 -1 -28 -57z
m2142 -241 c10 -13 30 -47 45 -75 15 -28 36 -64 46 -81 11 -16 24 -39 30 -50
6 -11 16 -29 23 -40 7 -11 37 -63 67 -115 30 -52 60 -104 67 -115 7 -11 17
-29 23 -40 6 -11 19 -33 30 -50 11 -16 23 -37 27 -45 8 -18 89 -158 103 -180
6 -8 15 -24 20 -35 6 -11 19 -33 30 -50 11 -16 23 -37 27 -45 4 -8 32 -58 63
-110 31 -52 59 -102 63 -110 4 -8 16 -28 27 -45 11 -16 23 -37 27 -45 4 -8 32
-58 63 -110 31 -52 59 -102 63 -110 4 -8 16 -28 27 -45 11 -16 24 -39 30 -50
6 -11 21 -38 33 -60 23 -40 23 -40 4 -75 -10 -19 -27 -48 -38 -65 -10 -16 -22
-37 -26 -45 -4 -8 -32 -58 -63 -110 -31 -52 -59 -102 -63 -110 -4 -8 -16 -28
-27 -45 -11 -16 -24 -39 -30 -50 -6 -11 -16 -29 -23 -40 -7 -11 -37 -63 -67
-115 -30 -52 -60 -104 -67 -115 -7 -11 -15 -27 -19 -35 -4 -7 -46 -79 -94
-160 -47 -80 -89 -152 -93 -160 -4 -8 -16 -28 -27 -45 -11 -16 -23 -37 -27
-45 -4 -8 -24 -44 -46 -79 -21 -35 -43 -74 -48 -85 -5 -12 -18 -34 -29 -51
-11 -16 -24 -39 -30 -50 -6 -11 -19 -33 -30 -50 -11 -16 -23 -37 -27 -45 -37
-73 -76 -129 -96 -134 -29 -8 -1885 -8 -1915 0 -15 5 -39 34 -70 88 -26 44
-52 90 -59 101 -7 11 -17 29 -23 40 -6 11 -19 34 -30 50 -11 17 -26 44 -34 60
-8 17 -29 53 -45 80 -17 28 -35 59 -41 70 -6 11 -19 34 -30 50 -11 17 -23 37
-27 45 -4 8 -32 58 -63 110 -31 52 -59 102 -63 110 -4 8 -16 29 -27 45 -11 17
-24 39 -30 50 -6 11 -20 36 -32 55 -11 19 -31 53 -42 75 -12 22 -33 58 -47 80
-14 22 -29 47 -32 55 -4 8 -16 29 -27 45 -11 17 -23 37 -27 45 -4 8 -32 58
-63 110 -31 52 -59 102 -63 110 -4 8 -16 29 -26 45 -11 17 -32 53 -46 80 -15
28 -31 54 -35 59 -7 7 23 69 60 126 6 8 15 24 20 35 6 11 19 34 30 50 11 17
23 37 27 45 4 8 25 47 48 85 22 39 44 77 48 85 4 8 16 29 27 45 11 17 23 37
27 45 4 8 32 58 63 110 31 52 59 102 63 110 4 8 16 29 27 45 11 17 24 39 30
50 5 11 16 29 22 40 27 41 63 101 84 140 11 22 31 56 42 75 12 19 26 44 32 55
6 11 19 34 30 50 11 17 23 37 27 45 6 15 115 203 133 230 6 8 15 24 20 35 6
11 19 34 30 50 10 17 29 50 42 74 12 24 32 47 43 52 11 4 451 7 978 6 l958 -2
18 -24z"/>
<path d="M1410 3065 c-19 -7 -47 -14 -61 -14 -14 -1 -34 -8 -45 -16 -10 -8
-25 -15 -32 -15 -20 0 -144 -84 -189 -127 -79 -77 -136 -171 -170 -287 -23
-79 -28 -247 -9 -306 9 -27 16 -56 16 -65 0 -15 15 -48 41 -95 5 -8 12 -22 16
-30 12 -28 92 -128 123 -153 36 -31 38 -49 8 -74 -83 -67 -159 -187 -195 -307
-24 -81 -28 -248 -8 -321 17 -57 38 -113 57 -145 4 -8 11 -22 15 -30 3 -8 20
-33 37 -55 91 -117 193 -191 324 -234 106 -36 305 -36 402 -1 109 40 239 122
240 152 0 10 -28 47 -62 84 -35 36 -67 72 -71 80 -12 20 -44 17 -69 -6 -41
-38 -133 -73 -218 -84 -48 -6 -171 21 -192 42 -7 7 -17 12 -23 12 -6 0 -36 23
-67 50 -40 35 -66 71 -89 118 -30 62 -32 75 -32 167 0 100 10 135 56 210 20
33 96 104 130 122 76 41 103 46 262 52 l160 6 3 108 c1 59 -2 115 -7 126 -9
16 -27 19 -173 23 -160 5 -164 6 -223 38 -81 43 -134 97 -175 177 -33 64 -35
73 -34 164 0 110 13 149 76 236 34 47 115 113 139 113 5 0 21 8 35 17 37 24
231 23 265 -1 13 -9 30 -16 37 -16 8 0 31 -13 52 -30 60 -48 57 -49 183 87
l48 52 -28 28 c-96 96 -279 163 -438 162 -44 0 -96 -7 -115 -14z"/>
<path d="M2302 2051 c-10 -6 -12 -34 -5 -132 l8 -124 47 -5 c79 -9 112 -45
200 -216 42 -82 77 -158 77 -169 1 -23 -141 -309 -167 -338 -25 -28 -87 -57
-122 -57 -17 0 -32 -6 -35 -12 -10 -33 -11 -230 -1 -243 10 -13 21 -13 86 0
162 33 276 120 350 269 36 72 52 70 90 -10 31 -66 116 -168 155 -185 11 -5 39
-20 61 -33 23 -12 57 -26 75 -29 19 -4 54 -11 79 -16 30 -6 49 -6 58 1 13 11
18 211 6 242 -4 10 -18 16 -38 16 -35 0 -92 26 -123 56 -10 10 -55 90 -98 177
l-78 159 78 156 c43 87 88 166 99 178 30 30 80 54 115 54 43 0 51 22 51 149 0
107 -1 111 -23 116 -32 8 -162 -27 -222 -60 -76 -42 -148 -117 -190 -201 -26
-51 -43 -74 -54 -72 -8 2 -29 30 -45 63 -17 33 -40 71 -53 85 -13 14 -23 28
-23 32 0 12 -113 93 -155 111 -44 18 -150 47 -175 47 -8 0 -21 -4 -28 -9z"/>
</g>
</svg>
