<?xml version="1.0" standalone="no"?>
<!DOCTYPE svg PUBLIC "-//W3C//DTD SVG 20010904//EN"
 "http://www.w3.org/TR/2001/REC-SVG-20010904/DTD/svg10.dtd">
<svg version="1.0" xmlns="http://www.w3.org/2000/svg"
 width="580.000000pt" height="270.000000pt" viewBox="0 0 580.000000 270.000000"
 preserveAspectRatio="xMidYMid meet">
<g transform="translate(0.000000,270.000000) scale(0.100000,-0.100000)"
fill="#000000" stroke="none">
<path d="M1298 2608 c-32 -11 -35 -36 -15 -122 13 -54 37 -75 37 -32 0 20 7
29 27 37 15 6 31 16 35 22 15 23 8 66 -14 87 -24 22 -31 23 -70 8z m52 -52 c0
-32 -18 -43 -37 -23 -20 20 -10 47 17 47 15 0 20 -7 20 -24z"/>
<path d="M1417 2613 c-2 -5 -4 -41 -3 -82 1 -83 17 -103 39 -50 l13 33 13 -32
c17 -42 37 -41 52 3 16 43 29 45 29 5 0 -23 5 -30 19 -30 16 0 18 8 17 78 -1
68 -4 77 -20 77 -12 0 -24 -14 -35 -42 -27 -70 -35 -71 -66 -9 -26 51 -47 68
-58 49z"/>
<path d="M1635 2609 c-4 -6 -4 -13 -1 -16 3 -3 1 -12 -4 -18 -6 -7 -11 -37
-13 -66 l-2 -53 48 -9 c26 -5 51 -7 54 -3 9 9 -18 36 -37 36 -18 0 -34 23 -23
34 4 3 17 6 30 6 33 0 29 24 -7 37 -45 17 -39 37 9 30 27 -3 41 -1 45 8 2 7 2
16 -1 19 -11 10 -92 7 -98 -5z"/>
<path d="M4359 2597 c-25 -34 -8 -177 20 -177 4 0 6 35 3 78 -4 65 -2 80 11
85 30 12 38 -16 29 -112 -8 -89 -2 -115 20 -93 6 6 6 12 0 16 -10 6 -3 46 19
123 12 39 11 45 -7 70 -28 37 -73 42 -95 10z"/>
<path d="M1761 2558 c-7 -24 -17 -57 -22 -74 -12 -40 -12 -44 6 -44 18 0 35
31 35 66 0 39 22 16 39 -41 23 -78 62 -69 76 18 4 23 12 48 17 54 6 7 8 20 4
28 -10 28 -33 15 -50 -27 l-18 -43 -24 53 c-13 28 -30 52 -37 52 -8 0 -19 -19
-26 -42z"/>
<path d="M1203 2564 c4 -16 9 -39 13 -51 4 -14 2 -23 -4 -23 -6 0 -16 18 -22
40 -8 30 -16 40 -31 40 -16 0 -18 -5 -13 -27 4 -16 11 -36 15 -45 16 -31 10
-66 -11 -73 -29 -9 -43 6 -59 62 -18 62 -20 66 -35 53 -14 -11 -10 -56 5 -66
5 -3 9 -14 9 -24 0 -33 31 -60 68 -60 36 0 66 22 81 60 7 17 10 20 10 8 1 -10
10 -22 22 -28 20 -11 20 -10 14 34 -11 70 -31 121 -50 125 -15 2 -17 -2 -12
-25z"/>
<path d="M1935 2550 c-3 -5 3 -17 13 -26 19 -16 19 -17 -5 -66 -23 -48 -25
-78 -4 -78 6 0 17 17 27 38 32 74 36 78 57 78 13 -1 23 6 25 16 6 29 -97 63
-113 38z"/>
<path d="M949 2492 c-19 -9 -40 -29 -47 -44 -11 -23 -10 -32 9 -65 30 -54 39
-63 63 -63 29 0 100 26 104 38 1 5 -7 35 -18 66 -28 73 -60 93 -111 68z m68
-58 c16 -25 16 -27 0 -39 -9 -7 -17 -17 -17 -24 0 -24 -40 -10 -55 19 -19 36
-19 35 1 54 23 24 51 19 71 -10z"/>
<path d="M2115 2482 c-20 -14 -75 -115 -75 -136 0 -22 76 -59 103 -50 25 8 40
25 63 72 21 41 8 72 -42 102 -35 22 -35 22 -49 12z m49 -58 c20 -19 20 -34 0
-62 -17 -25 -62 -30 -70 -7 -6 15 32 85 46 85 5 0 16 -7 24 -16z"/>
<path d="M3792 2463 c-7 -3 -18 -17 -26 -31 -17 -34 -6 -62 50 -125 68 -77 75
-58 14 36 -35 53 -38 63 -26 76 22 21 31 10 105 -136 16 -33 31 -43 31 -20 0
6 -9 32 -20 56 -11 24 -20 51 -20 61 0 23 -62 90 -81 89 -8 0 -20 -3 -27 -6z"/>
<path d="M4960 2453 c-36 -25 -44 -38 -66 -109 -11 -37 -25 -64 -32 -64 -15 0
-12 -22 4 -27 9 -3 84 115 84 134 0 13 33 43 48 43 20 0 13 -47 -12 -77 -64
-77 -55 -112 10 -40 38 42 44 55 44 93 0 33 -5 46 -19 54 -26 14 -32 13 -61
-7z"/>
<path d="M830 2430 c0 -5 -5 -10 -10 -10 -6 0 -21 -7 -35 -16 l-24 -15 24 -37
c13 -20 36 -54 50 -75 l26 -38 32 20 c59 37 65 82 6 49 -26 -16 -30 -16 -36
-2 -3 8 4 25 16 38 16 17 19 26 11 31 -7 4 -17 2 -23 -4 -14 -14 -47 -14 -47
0 0 6 11 20 25 31 14 11 23 24 20 29 -8 12 -35 12 -35 -1z"/>
<path d="M2250 2385 c-7 -9 -28 -39 -46 -68 -30 -48 -34 -67 -14 -67 13 0 101
130 95 141 -9 13 -21 11 -35 -6z"/>
<path d="M4348 2383 c-8 -10 -18 -26 -21 -35 -5 -13 -17 -18 -44 -18 -51 -1
-134 -21 -214 -54 -36 -14 -70 -26 -76 -26 -6 0 -16 -7 -23 -15 -12 -15 -66
-45 -81 -45 -17 0 -191 -164 -247 -232 -17 -22 -30 -28 -59 -28 -31 0 -49 10
-96 50 -69 59 -97 69 -132 46 -32 -21 -33 -65 -2 -94 13 -12 27 -22 32 -22 5
0 35 -10 67 -22 41 -16 59 -29 63 -45 6 -25 25 -32 25 -9 0 8 3 22 7 32 4 12
3 15 -6 10 -7 -4 -26 2 -44 16 -18 13 -45 29 -62 37 -55 25 -60 28 -63 45 -5
26 46 20 87 -11 47 -37 109 -64 116 -52 10 16 25 10 25 -11 0 -10 -13 -35 -30
-53 -16 -19 -30 -43 -30 -54 0 -11 -9 -37 -19 -59 -25 -50 -51 -162 -51 -215
0 -21 -4 -39 -8 -39 -17 0 -74 -59 -67 -69 11 -19 24 -12 31 14 10 42 29 22
29 -31 0 -38 -4 -49 -17 -52 -12 -2 -16 1 -12 11 6 17 -14 33 -26 21 -10 -10
16 -43 45 -60 13 -7 21 -24 23 -45 5 -57 31 -164 52 -214 22 -50 26 -85 10
-85 -5 0 -12 -11 -16 -24 -4 -18 -20 -29 -67 -46 -87 -32 -117 -55 -117 -90 0
-18 8 -34 22 -44 42 -29 65 -20 158 63 19 17 43 31 53 31 17 0 22 11 11 23 -7
6 -107 -45 -135 -69 -21 -18 -69 -18 -69 0 0 8 29 28 63 44 35 17 70 38 77 47
9 11 16 12 26 4 10 -9 12 -3 7 27 -5 29 -3 36 8 32 22 -7 60 -80 48 -94 -7 -8
-3 -13 13 -18 13 -3 33 -21 46 -39 33 -49 212 -217 231 -217 15 0 69 -30 81
-45 7 -8 19 -15 27 -15 8 0 33 -9 57 -20 58 -26 188 -60 230 -60 28 0 38 -5
48 -27 15 -30 43 -51 54 -40 4 4 -2 14 -14 23 -37 25 -17 47 37 40 63 -8 62
-8 96 -1 159 30 190 38 253 67 24 10 48 18 54 16 5 -2 26 11 45 29 19 18 43
33 52 33 10 0 33 12 51 27 87 75 143 130 181 179 37 48 45 54 79 54 21 0 43
-7 50 -15 7 -8 17 -15 23 -15 5 0 17 -8 26 -19 24 -27 83 -61 107 -61 26 0 54
30 54 57 0 24 -46 73 -69 73 -10 0 -36 9 -59 20 -42 20 -62 25 -62 14 0 -8 43
-43 53 -44 22 -1 97 -44 97 -56 0 -24 -49 -16 -95 16 -24 17 -47 30 -51 30 -4
0 -18 10 -31 21 -20 20 -23 20 -29 5 -7 -19 -34 -22 -34 -3 0 8 14 33 30 55
17 23 30 45 30 49 0 3 13 40 29 82 28 74 51 174 51 220 0 14 7 25 20 28 11 3
20 9 20 13 0 4 -9 10 -20 13 -16 4 -20 14 -20 51 0 32 5 48 18 56 16 10 16 10
0 20 -12 7 -18 23 -18 45 0 46 -17 115 -48 195 -14 36 -26 72 -26 80 -1 8 -16
35 -34 59 -18 24 -32 48 -32 52 0 17 22 20 34 4 11 -15 13 -15 30 4 11 12 23
21 28 21 5 0 29 13 53 30 45 31 95 40 95 17 0 -8 -34 -30 -75 -51 -41 -21 -75
-42 -75 -47 0 -13 4 -12 77 13 106 36 139 89 83 129 -33 24 -69 16 -112 -25
-55 -52 -80 -66 -119 -66 -32 0 -41 6 -78 54 -38 49 -94 104 -181 179 -18 15
-41 27 -51 27 -9 0 -33 15 -52 33 -19 18 -40 31 -45 29 -6 -2 -30 6 -55 17
-59 27 -188 61 -231 61 -19 0 -41 6 -49 14 -8 9 -18 11 -23 6 -5 -5 -28 -12
-51 -16 -41 -6 -43 -6 -43 20 0 17 5 26 16 26 8 0 12 5 9 10 -9 15 -20 12 -37
-7z m105 -280 c4 -3 30 -8 57 -9 56 -3 147 -29 171 -50 8 -8 24 -14 34 -14 25
0 85 -39 85 -56 0 -8 8 -14 18 -14 26 0 129 -96 153 -141 10 -22 24 -39 29
-39 5 0 16 -17 25 -37 9 -21 23 -54 32 -73 41 -94 58 -177 41 -197 -10 -12 -9
-17 5 -24 24 -14 24 -94 0 -108 -14 -7 -15 -12 -5 -24 18 -21 4 -87 -39 -184
-11 -24 -19 -47 -19 -51 0 -16 -31 -72 -41 -72 -5 0 -17 -17 -28 -39 -22 -42
-130 -141 -154 -141 -9 0 -18 -9 -22 -19 -7 -25 -73 -57 -87 -43 -14 14 -4 27
37 46 19 9 35 22 35 28 0 5 -6 8 -12 5 -47 -20 -68 -34 -68 -44 0 -7 -5 -13
-11 -13 -6 0 -9 -6 -6 -14 3 -8 0 -21 -6 -29 -16 -20 -116 -49 -172 -49 -25 0
-47 -4 -51 -9 -3 -5 -25 -9 -50 -9 -36 0 -46 4 -52 21 -7 18 -10 19 -21 5 -9
-10 -23 -13 -44 -10 -66 11 -123 28 -166 51 -24 13 -50 23 -57 23 -7 0 -25 12
-41 28 -15 15 -40 33 -56 41 -43 23 -197 199 -197 226 0 4 -9 26 -19 49 -10
23 -24 61 -31 86 -6 25 -15 58 -20 74 -10 32 -6 46 16 46 8 0 14 5 14 10 0 6
-8 10 -17 8 -15 -3 -19 6 -21 51 -4 63 11 87 29 48 13 -28 24 -34 34 -17 3 6
-1 10 -9 10 -9 0 -16 6 -16 14 0 7 -9 20 -20 27 -18 12 -19 19 -12 44 5 17 15
50 22 75 21 81 79 200 97 200 7 0 13 8 13 18 0 18 129 152 147 152 5 0 20 11
33 25 12 13 39 30 59 36 20 7 45 18 56 25 28 18 102 41 156 48 41 6 47 4 57
-16 10 -22 11 -22 11 -2 1 11 4 24 8 27 8 9 88 9 96 0z"/>
<path d="M4417 2063 c-4 -8 6 -161 18 -264 6 -55 5 -57 -21 -63 -14 -4 -29 -4
-33 -1 -8 9 -8 101 3 223 6 78 5 102 -4 102 -8 0 -10 -8 -7 -21 3 -11 -1 -36
-9 -56 -9 -21 -17 -77 -19 -142 -1 -58 -4 -108 -5 -111 -1 -3 -2 -12 -1 -21 2
-18 -54 -60 -110 -83 -27 -11 -43 -28 -64 -68 -36 -69 -42 -77 -82 -93 -23
-10 -54 -12 -96 -9 -76 7 -232 -27 -182 -40 15 -4 70 -2 121 5 52 6 103 9 114
6 13 -3 25 2 34 15 26 36 46 16 46 -46 0 -61 -15 -80 -39 -49 -12 14 -25 19
-51 16 -19 -3 -69 0 -110 5 -42 5 -94 6 -115 2 -23 -4 -30 -8 -17 -9 13 0 46
-8 73 -17 35 -12 70 -15 114 -11 65 5 118 -6 149 -32 8 -7 28 -38 42 -67 21
-42 35 -58 63 -70 58 -24 112 -66 106 -82 -3 -7 -2 -19 2 -25 4 -7 8 -55 9
-108 1 -53 7 -113 14 -135 8 -21 13 -49 12 -61 -1 -13 3 -23 9 -23 8 0 9 28 3
103 -10 117 -11 214 -1 223 3 4 18 3 33 0 23 -6 26 -11 20 -36 -12 -64 -19
-300 -8 -300 6 0 12 29 15 68 3 37 9 88 15 114 7 28 8 66 3 97 -6 35 -5 54 3
59 6 4 -16 9 -49 12 -52 4 -60 8 -60 25 0 18 6 20 68 17 61 -2 71 1 109 28 22
16 49 30 60 30 13 0 25 14 37 43 24 55 68 107 91 107 10 0 22 4 25 10 3 6 30
7 66 3 42 -4 84 0 141 12 110 26 73 38 -66 23 -57 -6 -111 -8 -120 -5 -21 8
-21 56 0 64 8 3 62 0 119 -7 138 -16 177 -5 74 22 -52 14 -92 18 -136 14 -100
-8 -139 15 -188 112 -17 35 -32 52 -45 52 -10 0 -38 15 -62 33 -40 30 -47 32
-103 26 -64 -6 -81 0 -72 25 5 12 20 16 59 16 l53 0 -1 92 c-1 51 -7 106 -13
121 -6 16 -11 53 -11 83 0 47 -11 69 -23 47z m66 -592 c37 -37 44 -86 17 -129
-44 -71 -149 -76 -190 -9 -71 116 76 234 173 138z m245 -70 c2 -36 -1 -57 -10
-62 -20 -13 -38 11 -38 51 0 51 9 72 29 68 12 -2 17 -17 19 -57z"/>
<path d="M4680 2013 c1 -13 27 -43 37 -43 6 0 16 -7 23 -15 7 -8 19 -15 26
-15 26 0 14 19 -22 36 -20 9 -38 23 -41 31 -5 14 -23 18 -23 6z"/>
<path d="M4090 1990 c-12 -8 -12 -11 2 -27 8 -10 23 -32 32 -50 8 -17 38 -61
66 -97 27 -36 50 -70 50 -76 0 -5 5 -10 10 -10 17 0 11 41 -12 73 -18 27 -82
110 -117 153 -5 6 -11 18 -12 27 -3 12 -8 14 -19 7z"/>
<path d="M4034 1959 c-3 -6 -2 -15 4 -21 7 -7 14 -3 21 11 10 17 9 21 -3 21
-8 0 -18 -5 -22 -11z"/>
<path d="M4663 1927 c-12 -17 -33 -43 -46 -57 -40 -44 -67 -87 -67 -109 0 -25
16 -28 24 -3 3 9 18 31 32 47 33 38 94 132 94 145 0 19 -15 10 -37 -23z"/>
<path d="M4718 1908 c-14 -24 -39 -75 -56 -118 -29 -73 -44 -100 -60 -109 -16
-9 -16 -11 -1 -26 15 -16 17 -14 27 14 6 17 16 31 21 31 6 0 11 7 11 15 0 8 4
15 8 15 5 0 21 33 36 73 15 39 31 80 37 89 21 40 1 53 -23 16z"/>
<path d="M4060 1910 c0 -5 11 -34 25 -64 14 -30 25 -59 25 -64 0 -6 16 -33 35
-62 19 -29 35 -61 35 -72 0 -20 0 -20 18 1 9 12 33 27 52 34 43 14 53 31 23
35 -15 2 -23 -2 -23 -11 0 -8 -11 -17 -25 -19 -29 -6 -52 20 -74 82 -26 72
-66 150 -78 150 -7 0 -13 -4 -13 -10z"/>
<path d="M3827 1754 c-4 -4 13 -17 36 -30 45 -25 61 -33 172 -82 51 -23 73
-39 81 -58 10 -23 12 -24 16 -8 8 33 8 39 -1 39 -5 0 -20 12 -35 26 -14 15
-47 34 -74 43 -54 20 -90 35 -114 47 -10 5 -25 9 -33 9 -8 0 -15 5 -15 10 0
11 -23 14 -33 4z"/>
<path d="M4940 1750 c-34 -21 -105 -50 -121 -50 -10 0 -21 -4 -24 -10 -3 -5
-13 -10 -21 -10 -16 0 -114 -70 -114 -81 0 -4 6 -12 14 -18 11 -9 15 -7 19 9
3 12 24 28 54 41 98 42 193 90 193 98 0 4 9 7 20 7 10 -1 20 4 20 9 1 13 -21
16 -40 5z"/>
<path d="M4523 1723 c-20 -7 -15 -33 5 -33 24 0 32 8 25 26 -5 15 -10 16 -30
7z"/>
<path d="M3788 1700 c-9 -10 -14 -20 -12 -23 8 -8 54 17 51 27 -5 17 -21 15
-39 -4z"/>
<path d="M4973 1708 c-4 -7 -24 -20 -44 -30 -20 -9 -62 -38 -95 -65 -69 -55
-97 -73 -119 -73 -8 0 -15 -9 -15 -20 0 -27 30 -26 37 1 4 12 11 18 20 15 20
-8 47 8 140 86 82 69 100 77 120 57 8 -8 13 -8 17 0 4 6 1 11 -7 11 -8 0 -17
7 -21 15 -7 18 -22 19 -33 3z"/>
<path d="M3840 1684 c0 -21 180 -154 209 -154 8 0 20 -8 27 -17 14 -20 18 -18
29 15 6 20 4 22 -17 17 -17 -4 -36 5 -73 35 -99 79 -175 125 -175 104z"/>
<path d="M5057 1433 c-7 -11 -3 -70 5 -78 3 -3 8 12 10 35 3 39 -4 61 -15 43z"/>
<path d="M4070 1270 c-6 -11 -21 -20 -33 -20 -28 0 -53 -17 -140 -92 -60 -53
-70 -59 -98 -53 l-31 7 21 -21 c24 -24 37 -26 48 -8 4 6 26 21 47 32 22 11 63
39 90 63 60 51 100 74 118 67 9 -4 13 3 13 20 0 30 -20 33 -35 5z"/>
<path d="M4700 1272 c0 -12 13 -23 38 -32 20 -7 62 -34 92 -60 30 -26 71 -55
90 -65 19 -10 43 -25 53 -34 17 -14 20 -14 32 2 6 9 18 17 24 17 7 0 9 5 5 11
-4 8 -9 8 -17 0 -18 -18 -40 -12 -77 20 -74 65 -153 119 -175 119 -15 0 -26 8
-30 20 -8 25 -35 26 -35 2z"/>
<path d="M4115 1201 c-4 -12 -26 -30 -53 -42 -26 -11 -67 -30 -92 -41 -25 -10
-54 -25 -65 -31 -11 -6 -35 -19 -53 -28 -19 -10 -28 -20 -22 -24 10 -6 31 1
114 41 16 8 34 14 41 14 20 0 90 38 109 59 11 12 27 21 38 21 21 0 22 8 4 33
-14 18 -14 17 -21 -2z"/>
<path d="M4672 1204 c-6 -7 -12 -15 -12 -17 0 -12 104 -78 145 -92 47 -16 92
-34 143 -58 16 -8 26 -7 34 1 9 9 6 12 -15 12 -15 0 -27 4 -27 9 0 9 -75 47
-160 83 -52 22 -75 37 -85 56 -9 16 -13 17 -23 6z"/>
<path d="M4180 1142 c0 -12 -13 -40 -29 -62 -15 -21 -34 -54 -41 -72 -18 -49
-31 -81 -41 -100 -13 -26 -11 -38 6 -38 8 0 15 6 15 14 0 7 6 19 13 25 8 6 20
30 27 53 7 24 17 47 22 52 4 6 8 16 8 24 0 8 9 27 20 42 15 21 26 27 43 23 21
-4 21 -4 4 10 -10 9 -25 24 -32 34 -14 17 -14 17 -15 -5z"/>
<path d="M4588 1119 c-17 -18 -17 -19 5 -19 22 0 37 -21 64 -90 19 -48 67
-141 76 -147 16 -10 20 7 7 35 -7 15 -17 38 -23 52 -5 14 -13 33 -18 42 -5 10
-9 24 -9 31 0 7 -13 28 -30 47 -16 19 -29 43 -30 53 0 22 -20 21 -42 -4z"/>
<path d="M4517 1093 c-11 -11 -8 -21 10 -27 15 -6 32 8 33 27 0 9 -34 9 -43 0z"/>
<path d="M4253 1077 c3 -7 -22 -49 -55 -93 -32 -43 -68 -98 -79 -121 -11 -24
-24 -43 -29 -43 -6 0 -10 -4 -10 -10 0 -5 7 -10 15 -10 8 0 15 5 15 11 0 7 26
43 58 81 73 88 92 118 92 144 0 12 10 29 23 37 l22 16 -29 0 c-19 1 -27 -3
-23 -12z"/>
<path d="M4550 1028 c0 -21 79 -136 122 -180 51 -51 4 53 -54 121 -16 18 -34
44 -40 57 -14 30 -28 31 -28 2z"/>
<path d="M4037 843 c-13 -12 -7 -23 13 -23 13 0 18 5 14 15 -7 16 -17 19 -27
8z"/>
<path d="M2273 2313 c-48 -57 -66 -90 -55 -97 5 -3 19 4 31 15 26 24 57 18 46
-9 -18 -43 -17 -52 3 -52 14 0 21 9 26 30 3 20 14 34 30 40 14 5 30 18 35 29
9 17 6 26 -20 56 -17 19 -37 35 -43 35 -7 0 -31 -21 -53 -47z m77 -29 c0 -8
-9 -14 -20 -14 -19 0 -28 28 -13 43 9 9 33 -12 33 -29z"/>
<path d="M663 2307 l-37 -34 50 -62 c27 -33 56 -61 64 -61 9 0 31 13 50 29 28
24 33 32 23 42 -10 10 -18 9 -41 -8 -36 -27 -66 -15 -39 15 9 10 17 24 17 30
0 15 -26 16 -35 2 -9 -14 -35 -12 -35 3 0 7 9 18 20 25 11 7 20 19 20 26 0 29
-20 26 -57 -7z"/>
<path d="M2390 2224 c-19 -19 -43 -39 -52 -45 -10 -5 -18 -16 -18 -24 0 -16
48 -75 61 -75 18 0 21 29 5 45 -34 35 -10 61 26 29 16 -16 18 -15 25 2 4 10 2
19 -5 22 -7 2 -12 15 -12 29 l0 25 31 -26 c33 -28 44 -31 53 -17 9 13 -43 71
-62 70 -10 0 -33 -16 -52 -35z"/>
<path d="M4912 2240 c-11 -18 -10 -20 8 -20 13 0 20 7 20 20 0 11 -3 20 -8 20
-4 0 -13 -9 -20 -20z"/>
<path d="M3868 2226 c-4 -21 -3 -23 14 -13 19 12 19 28 1 34 -6 2 -13 -7 -15
-21z"/>
<path d="M584 2228 c-4 -7 5 -22 24 -38 44 -36 42 -50 -5 -39 -103 24 -119 -3
-42 -72 30 -26 60 -48 67 -49 21 0 13 23 -20 57 -34 35 -31 37 39 24 30 -6 48
-5 60 5 16 11 13 17 -42 68 -64 59 -70 62 -81 44z"/>
<path d="M2480 2139 c-41 -25 -69 -57 -70 -81 0 -25 66 -90 87 -86 27 5 23 42
-5 46 -12 2 -27 13 -33 24 -9 16 -6 24 12 44 38 40 79 26 79 -28 0 -21 5 -28
19 -28 20 0 31 18 31 50 0 16 -64 80 -80 80 -3 0 -21 -9 -40 -21z"/>
<path d="M470 2085 c0 -14 110 -95 129 -95 26 0 6 31 -44 69 -58 43 -85 51
-85 26z"/>
<path d="M417 2018 c-13 -18 -27 -38 -30 -44 -4 -7 18 -28 51 -50 l57 -39 -79
-5 c-45 -3 -81 -10 -83 -16 -2 -6 20 -34 49 -62 29 -28 50 -54 46 -57 -6 -7
-62 8 -105 28 -23 10 -43 3 -43 -16 0 -7 20 -28 45 -47 24 -19 44 -38 45 -42
0 -4 -17 -10 -37 -13 -64 -11 -88 -21 -91 -38 -2 -10 2 -19 10 -21 126 -40
144 -44 153 -35 7 7 2 17 -13 30 l-24 19 25 9 c36 14 41 38 12 63 -33 29 -31
35 10 30 30 -4 35 -1 41 22 3 15 1 32 -6 40 -9 12 -8 20 5 40 10 14 24 26 33
26 18 0 41 29 42 52 0 10 -9 22 -20 28 -33 17 -23 29 28 32 50 3 61 21 16 26
-15 2 -41 19 -59 38 -18 19 -37 34 -43 34 -6 0 -22 -15 -35 -32z m57 -24 c9
-24 -6 -41 -32 -35 -21 6 -22 7 -7 29 19 26 31 28 39 6z m-44 -164 c0 -5 -7
-10 -15 -10 -8 0 -15 5 -15 10 0 6 7 10 15 10 8 0 15 -4 15 -10z"/>
<path d="M2610 2016 c0 -13 5 -26 11 -28 6 -2 -15 -17 -47 -34 -33 -16 -60
-37 -62 -47 -5 -27 24 -21 81 18 51 34 52 35 60 13 7 -20 9 -20 24 -5 15 15
15 18 2 34 -8 10 -21 30 -29 46 -17 34 -40 35 -40 3z"/>
<path d="M2676 1912 c-3 -5 -30 -21 -60 -35 -61 -29 -71 -40 -53 -56 19 -15
149 54 145 77 -4 18 -24 27 -32 14z"/>
<path d="M5260 1872 c0 -18 12 -42 21 -42 14 0 10 26 -6 40 -9 8 -15 8 -15 2z"/>
<path d="M2642 1800 c-48 -52 -52 -59 -35 -67 10 -5 53 -7 96 -5 58 3 77 7 77
18 0 11 -15 14 -62 14 l-63 0 43 36 c47 39 55 65 20 63 -14 -1 -44 -24 -76
-59z"/>
<path d="M1520 1772 l-535 -2 3 -113 c2 -61 5 -118 7 -124 5 -15 55 -18 55 -3
0 6 -5 10 -11 10 -8 0 -8 4 -1 13 7 8 6 18 -4 31 -32 44 -10 116 42 141 30 14
88 15 466 13 481 -3 469 -2 490 -70 12 -41 4 -101 -17 -122 -13 -13 -11 -15
16 -21 17 -4 33 -5 35 -2 10 10 9 250 -1 251 -5 1 -251 0 -545 -2z"/>
<path d="M2715 1689 c-16 -4 -42 -11 -57 -14 -23 -4 -28 -11 -28 -36 0 -37 27
-92 42 -83 6 4 8 22 4 45 -3 22 -3 39 1 39 14 0 29 -15 36 -33 11 -29 32 -13
31 22 -2 42 23 41 34 -1 4 -18 15 -33 23 -33 20 0 23 39 4 74 -16 33 -33 37
-90 20z"/>
<path d="M220 1495 c-14 -36 -13 -305 2 -379 46 -242 103 -377 250 -592 29
-43 108 -127 205 -217 44 -41 69 -57 85 -55 38 5 30 25 -30 71 -223 172 -396
456 -457 750 -16 77 -23 268 -15 377 4 56 3 65 -12 68 -12 2 -21 -6 -28 -23z"/>
<path d="M2795 1511 c-3 -6 -1 -36 4 -68 22 -118 3 -329 -43 -479 -25 -84 -86
-231 -112 -271 -7 -12 -23 -39 -35 -60 -49 -88 -237 -287 -312 -331 -30 -18
-34 -54 -6 -60 8 -1 64 42 125 96 209 188 350 433 410 712 18 87 30 367 17
425 -9 39 -34 58 -48 36z"/>
<path d="M350 1490 c-12 -8 -15 -38 -15 -177 1 -168 3 -179 48 -338 26 -95 93
-237 152 -325 70 -104 262 -300 295 -300 35 0 31 20 -12 57 -183 157 -311 337
-375 528 -51 148 -66 252 -61 419 3 140 -1 156 -32 136z"/>
<path d="M2680 1498 c-1 -2 -2 -88 -4 -193 -2 -104 -8 -203 -13 -220 -6 -16
-16 -55 -23 -85 -7 -30 -16 -62 -20 -70 -4 -8 -13 -28 -20 -45 -69 -167 -190
-332 -328 -448 -75 -62 -82 -71 -68 -85 13 -14 18 -13 43 3 51 32 227 219 275
290 75 113 115 202 168 370 47 150 52 475 8 483 -10 2 -18 2 -18 0z"/>
<path d="M3196 1439 c-34 -26 -34 -62 0 -88 33 -26 82 -27 132 -4 l37 18 -73
3 c-69 3 -73 4 -70 25 3 20 9 22 63 23 90 1 94 3 45 24 -59 25 -101 25 -134
-1z"/>
<path d="M5485 1444 c-22 -8 -53 -13 -68 -10 -20 4 -27 2 -24 -7 2 -8 32 -12
98 -12 87 0 94 -1 94 -20 0 -18 -7 -20 -90 -22 -119 -2 -120 -2 -50 -19 110
-28 131 -28 165 -4 39 28 40 62 1 89 -34 24 -70 26 -126 5z"/>
<path d="M987 1432 c-19 -4 -23 -27 -7 -37 13 -8 1100 -8 1108 0 4 3 2 13 -3
21 -9 13 -84 15 -546 17 -294 1 -543 1 -552 -1z"/>
<path d="M974 1326 c-3 -8 -4 -27 -2 -43 l3 -28 555 0 555 0 0 40 0 40 -553 3
c-470 2 -553 0 -558 -12z"/>
<path d="M981 1117 c-7 -7 -11 -59 -11 -143 0 -111 3 -133 16 -138 9 -3 51 -6
94 -6 142 0 200 44 200 150 0 61 -20 104 -58 124 -35 18 -225 29 -241 13z
m221 -64 c22 -20 31 -69 20 -108 -11 -41 -56 -62 -129 -61 l-58 1 -3 84 c-2
46 -1 90 2 96 6 18 146 7 168 -12z"/>
<path d="M1378 1123 c-16 -4 -18 -20 -18 -149 l0 -145 28 3 27 3 -2 103 c-2
70 1 102 8 100 6 -2 57 -50 114 -107 87 -88 106 -103 126 -98 24 6 24 6 22
144 -1 110 -5 140 -16 147 -10 7 -20 6 -30 -3 -13 -10 -15 -29 -10 -102 5 -74
4 -89 -9 -89 -8 0 -58 45 -112 100 -54 55 -101 99 -104 99 -4 -1 -15 -3 -24
-6z"/>
<path d="M1766 1121 c-9 -14 127 -281 147 -287 24 -7 40 7 55 50 7 19 38 79
68 132 56 99 58 119 14 112 -26 -3 -25 -2 -80 -120 -22 -49 -42 -88 -45 -88
-3 0 -26 41 -50 92 -25 50 -50 97 -56 105 -13 15 -45 18 -53 4z"/>
<path d="M5272 948 c-14 -14 -16 -38 -3 -38 10 0 26 39 19 46 -2 2 -10 -2 -16
-8z"/>
<path d="M3864 575 c3 -9 6 -21 6 -26 0 -5 7 -9 15 -9 22 0 18 23 -6 39 -19
11 -21 11 -15 -4z"/>
<path d="M4912 553 c5 -25 28 -28 28 -4 0 12 -6 21 -16 21 -9 0 -14 -7 -12
-17z"/>
<path d="M3920 530 c0 -8 -14 -35 -30 -60 -16 -25 -30 -52 -30 -61 0 -9 -9
-24 -20 -34 -18 -17 -22 -17 -36 -4 -13 14 -11 21 19 65 19 27 37 61 41 74 6
20 -2 15 -41 -25 -27 -27 -54 -63 -61 -78 -11 -25 -10 -32 9 -58 11 -16 30
-29 41 -29 25 0 88 64 88 90 0 11 10 40 22 65 17 35 19 48 10 57 -9 9 -12 9
-12 -2z"/>
<path d="M4855 529 c-4 -6 0 -16 8 -22 8 -7 23 -37 33 -67 25 -74 40 -96 74
-110 45 -19 70 0 70 54 0 36 -7 51 -41 90 -22 25 -45 46 -50 46 -19 0 -8 -29
26 -70 35 -42 44 -73 25 -85 -16 -10 -36 11 -63 63 -55 107 -68 124 -82 101z"/>
<path d="M4417 413 c-2 -5 0 -48 5 -96 10 -93 2 -122 -29 -110 -12 5 -14 20
-10 85 5 91 -11 103 -29 22 -18 -78 -2 -139 37 -144 34 -5 48 2 63 34 15 33
15 40 -3 108 -11 44 -15 77 -10 84 9 11 2 24 -12 24 -4 0 -10 -3 -12 -7z"/>
<path d="M928 349 c-18 -10 -24 -40 -11 -52 3 -4 15 1 25 10 12 11 22 13 29 6
14 -14 2 -37 -31 -56 -30 -18 -46 -49 -35 -67 3 -5 31 -10 61 -10 41 0 54 4
54 15 0 9 -9 15 -25 15 -14 0 -25 3 -25 6 0 3 11 19 25 36 14 16 25 40 25 53
0 46 -50 69 -92 44z"/>
<path d="M1061 334 c-35 -45 -25 -126 18 -148 22 -12 32 -12 57 -1 35 15 44
31 44 84 0 50 -32 91 -70 91 -19 0 -36 -9 -49 -26z m75 -39 c11 -42 -3 -75
-31 -75 -23 0 -25 4 -25 43 0 48 5 57 31 57 11 0 21 -10 25 -25z"/>
<path d="M1326 336 c-9 -14 -16 -29 -16 -33 0 -3 -9 -17 -21 -29 -25 -27 -18
-44 18 -44 17 0 27 -7 30 -20 8 -30 35 -20 45 15 5 21 3 36 -8 53 -8 13 -14
35 -12 49 4 35 -15 40 -36 9z"/>
<path d="M1520 345 c-9 -11 -16 -13 -24 -5 -18 18 -36 11 -48 -17 -6 -16 -21
-52 -34 -81 -29 -64 -30 -82 -5 -82 15 0 24 13 36 53 10 28 21 56 26 62 5 5 9
18 9 29 0 10 3 16 7 12 14 -14 30 -76 26 -100 -6 -28 20 -41 60 -30 47 11 62
102 26 148 -23 29 -60 34 -79 11z m55 -50 c0 -11 -8 -21 -17 -23 -14 -3 -18 3
-18 23 0 20 4 26 18 23 9 -2 17 -12 17 -23z m-5 -63 c0 -15 -11 -21 -27 -15
-12 5 -12 7 -1 14 17 11 28 11 28 1z"/>
<path d="M1656 335 c-41 -38 -35 -123 10 -144 37 -16 61 -14 85 10 18 18 21
30 17 75 -7 82 -58 109 -112 59z m74 -41 c15 -39 3 -74 -26 -74 -29 0 -42 39
-25 76 14 31 39 31 51 -2z"/>
<path d="M1876 351 c-33 -7 -33 -8 -74 -113 -21 -52 -27 -80 -20 -84 13 -8 48
31 48 52 0 13 10 37 32 74 5 8 11 23 14 33 4 9 11 17 16 17 5 0 6 -5 2 -11
-12 -20 -14 -112 -3 -126 16 -18 99 -18 99 1 0 9 -12 16 -27 18 -34 4 -46 38
-14 38 15 0 21 6 21 21 0 14 -5 19 -14 16 -8 -3 -20 1 -27 9 -10 13 -10 17 1
24 8 5 18 7 22 4 12 -8 49 16 43 27 -7 10 -73 10 -119 0z"/>
<path d="M2015 348 c-3 -9 -5 -44 -3 -79 3 -59 5 -64 34 -81 35 -20 76 -12
100 20 15 19 19 138 6 146 -20 12 -35 -15 -36 -63 -1 -55 -14 -75 -42 -69 -15
3 -20 14 -22 60 -3 57 -25 97 -37 66z"/>
<path d="M1216 335 c-18 -19 -20 -27 -7 -40 6 -6 11 -32 13 -60 2 -36 7 -50
18 -50 12 0 15 15 15 79 0 83 -9 100 -39 71z"/>
</g>
</svg>
