<svg version="1.0" xmlns="http://www.w3.org/2000/svg" width="134.000000pt" height="32.000000pt" viewBox="0 0 134.000000 32.000000" preserveAspectRatio="xMidYMid meet" style="width: 196.453px; height: auto;"> <g transform="translate(0.000000,32.000000) scale(0.100000,-0.100000)" fill="#000000" stroke="none" class="">    <path d="M961 293 c-5 -10 -17 -45 -26 -78 -10 -33 -22 -66 -27 -72 -11 -14 -71 -16 -101 -4 -16 6 -14 11 21 34 21 16 49 39 62 52 l22 24 -48 -2 c-27 -1 -57 3 -68 7 -14 7 -18 6 -14 -5 3 -8 23 -16 46 -19 l42 -5 -46 -37 c-26 -21 -51 -38 -55 -38 -24 0 -5 -18 30 -28 47 -15 88 -15 96 -2 4 6 11 8 16 4 6 -3 26 11 45 33 l34 38 -6 -36 c-7 -46 10 -59 40 -30 l23 22 6 -21 c5 -18 9 -20 27 -10 11 6 26 22 32 34 6 15 18 23 32 22 18 -1 21 -6 18 -28 -6 -37 19 -37 47 -2 l21 27 0 -27 c0 -15 6 -26 14 -26 18 0 64 37 77 63 9 16 3 14 -23 -10 -19 -18 -39 -33 -45 -33 -12 0 -6 38 10 58 5 7 7 16 3 20 -4 3 -23 -12 -42 -36 -44 -52 -59 -54 -39 -5 16 37 11 61 -6 30 -14 -25 -49 -22 -49 4 0 17 -3 19 -13 10 -8 -6 -16 -8 -19 -5 -3 2 -18 -10 -33 -28 -15 -18 -37 -39 -48 -47 -19 -14 -20 -13 -14 15 3 16 9 37 12 47 11 27 -13 21 -47 -13 -16 -17 -31 -30 -33 -30 -7 0 34 112 45 126 7 8 8 14 1 18 -6 4 -14 -1 -20 -11z m135 -139 c-10 -13 -21 -22 -26 -19 -15 10 -12 23 12 47 27 27 37 8 14 -28z" class=""></path>  <path d="M33 253 c-22 -8 -14 -23 10 -20 20 2 22 -3 25 -45 2 -31 -1 -48 -8 -48 -6 0 -8 -4 -5 -10 8 -13 55 -13 55 0 0 6 -7 10 -15 10 -9 0 -12 6 -8 18 9 26 65 82 82 82 12 0 12 3 3 12 -9 9 -19 5 -45 -20 l-33 -32 -11 30 c-11 29 -23 34 -50 23z"></path>    <path d="M170 180 c-6 -22 -8 -45 -5 -50 9 -15 31 -12 45 5 11 14 14 13 24 -1 10 -14 15 -13 40 7 l28 22 -7 -24 c-19 -65 -63 -100 -90 -72 -16 16 -17 15 -13 -3 5 -30 50 -30 79 0 21 21 74 156 61 156 -2 0 -22 -19 -44 -42 -35 -39 -39 -40 -35 -18 2 14 8 33 12 43 4 10 3 17 -4 17 -6 0 -11 -4 -11 -9 0 -14 -50 -71 -62 -71 -10 0 -6 27 8 64 3 9 1 16 -5 16 -5 0 -15 -18 -21 -40z" class=""></path> <path d="M378 203 c-53 -61 -46 -113 8 -62 l23 21 -6 -21 c-7 -25 13 -28 45 -6 20 14 21 14 16 0 -3 -8 -1 -15 5 -15 6 0 11 6 11 13 0 14 41 57 53 57 4 0 3 -11 -2 -23 -13 -34 2 -56 28 -40 16 10 20 9 25 -3 5 -13 9 -13 31 2 14 9 25 21 25 26 0 6 -7 5 -15 -2 -23 -19 -29 -5 -10 24 25 37 33 32 30 -18 -4 -87 -49 -140 -90 -106 -8 7 -15 8 -15 2 0 -19 30 -34 55 -28 40 10 80 104 69 163 -8 44 -26 42 -64 -7 -45 -57 -75 -54 -48 5 16 36 3 42 -33 16 -31 -23 -31 -23 -24 -2 4 12 2 21 -4 21 -6 0 -11 -8 -11 -18 0 -18 -39 -62 -54 -62 -5 0 -6 10 -3 21 5 20 -11 59 -24 59 -3 0 -13 -8 -21 -17z m11 -42 c-31 -25 -36 -19 -14 15 12 18 20 23 28 15 7 -7 3 -16 -14 -30z" class=""></path>     </g> </svg>